<?xml version="1.0" encoding="UTF-8"?>
<svg xmlns="http://www.w3.org/2000/svg" xmlns:xlink="http://www.w3.org/1999/xlink" width="64pt" height="64pt" viewBox="0 0 64 64" version="1.1">
<g id="surface1">
<path style=" stroke:none;fill-rule:nonzero;fill:#FFFFFF;fill-opacity:1;" d="M 50.550781 52.800781 C 46.851563 46.351563 39.949219 42 32 42 C 24.050781 42 17.148438 46.351563 13.449219 52.800781 L 13.5 54.5 L 50.5 54.5 Z "/>
<path style=" stroke:none;fill-rule:nonzero;fill:#71C2FF;fill-opacity:1;" d="M 54.851563 44 L 46.148438 44 C 45.601563 44 45.101563 44.300781 44.851563 44.75 L 40.5 52.25 C 40.25 52.699219 40.25 53.300781 40.5 53.75 L 44.851563 61.25 C 45.101563 61.699219 45.601563 62 46.148438 62 L 54.800781 62 C 55.351563 62 55.851563 61.699219 56.101563 61.25 L 60.449219 53.75 C 60.699219 53.300781 60.699219 52.699219 60.449219 52.25 L 56.101563 44.75 C 55.851563 44.300781 55.351563 44 54.851563 44 Z "/>
<path style=" stroke:none;fill-rule:nonzero;fill:#FFFFFF;fill-opacity:1;" d="M 55 53 C 55 55.484375 52.984375 57.5 50.5 57.5 C 48.015625 57.5 46 55.484375 46 53 C 46 50.515625 48.015625 48.5 50.5 48.5 C 52.984375 48.5 55 50.515625 55 53 Z "/>
<path style=" stroke:none;fill-rule:nonzero;fill:#444B54;fill-opacity:1;" d="M 39.398438 44.851563 C 39.25 44.851563 39.050781 44.800781 38.898438 44.75 C 36.699219 43.949219 34.398438 43.5 32 43.5 C 31.148438 43.5 30.5 42.851563 30.5 42 C 30.5 41.148438 31.148438 40.5 32 40.5 C 34.75 40.5 37.398438 41 39.949219 41.898438 C 40.75 42.199219 41.101563 43.050781 40.851563 43.851563 C 40.601563 44.449219 40 44.851563 39.398438 44.851563 Z "/>
<path style=" stroke:none;fill-rule:nonzero;fill:#444B54;fill-opacity:1;" d="M 13.449219 54.300781 C 13.199219 54.300781 12.949219 54.25 12.699219 54.101563 C 12 53.699219 11.75 52.800781 12.148438 52.050781 C 16.199219 44.949219 23.800781 40.5 32 40.5 C 32.851563 40.5 33.5 41.148438 33.5 42 C 33.5 42.851563 32.851563 43.5 32 43.5 C 24.898438 43.5 18.300781 47.351563 14.75 53.550781 C 14.5 54 14 54.300781 13.449219 54.300781 Z "/>
<path style=" stroke:none;fill-rule:nonzero;fill:#FFFFFF;fill-opacity:1;" d="M 42 25 C 42 30.523438 37.523438 35 32 35 C 26.476563 35 22 30.523438 22 25 C 22 19.476563 26.476563 15 32 15 C 37.523438 15 42 19.476563 42 25 Z "/>
<path style=" stroke:none;fill-rule:nonzero;fill:#444B54;fill-opacity:1;" d="M 32 36.5 C 25.648438 36.5 20.5 31.351563 20.5 25 C 20.5 18.648438 25.648438 13.5 32 13.5 C 38.351563 13.5 43.5 18.648438 43.5 25 C 43.5 31.351563 38.351563 36.5 32 36.5 Z M 32 16.5 C 27.300781 16.5 23.5 20.300781 23.5 25 C 23.5 29.699219 27.300781 33.5 32 33.5 C 36.699219 33.5 40.5 29.699219 40.5 25 C 40.5 20.300781 36.699219 16.5 32 16.5 Z "/>
</g>
</svg>
