<?xml version="1.0" encoding="UTF-8"?>
<svg xmlns="http://www.w3.org/2000/svg" xmlns:xlink="http://www.w3.org/1999/xlink" width="24pt" height="24pt" viewBox="0 0 24 24" version="1.1">
<g id="surface1">
<path style=" stroke:none;fill-rule:nonzero;fill:#FFFFFF;fill-opacity:1;" d="M 6 7 C 3.078125 7 0.738281 9.507813 1.023438 12.488281 C 1.269531 15.089844 3.601563 17 6.214844 17 L 9 17 C 9.550781 17 10 16.550781 10 16 C 10 15.449219 9.550781 15 9 15 L 6.171875 15 C 4.546875 15 3.089844 13.78125 3.007813 12.160156 C 2.914063 10.429688 4.289063 9 6 9 L 9 9 C 9.550781 9 10 8.550781 10 8 C 10 7.449219 9.550781 7 9 7 Z M 15 7 C 14.449219 7 14 7.449219 14 8 C 14 8.550781 14.449219 9 15 9 L 17.828125 9 C 19.453125 9 20.910156 10.21875 20.996094 11.839844 C 21.085938 13.570313 19.710938 15 18 15 L 15 15 C 14.449219 15 14 15.449219 14 16 C 14 16.550781 14.449219 17 15 17 L 18 17 C 20.921875 17 23.261719 14.492188 22.976563 11.511719 C 22.730469 8.910156 20.398438 7 17.785156 7 Z M 8 11 C 7.449219 11 7 11.449219 7 12 C 7 12.550781 7.449219 13 8 13 L 16 13 C 16.550781 13 17 12.550781 17 12 C 17 11.449219 16.550781 11 16 11 Z "/>
</g>
</svg>
