<?xml version="1.0" encoding="UTF-8"?>
<svg xmlns="http://www.w3.org/2000/svg" xmlns:xlink="http://www.w3.org/1999/xlink" width="40pt" height="40pt" viewBox="0 0 40 40" version="1.1">
<g id="surface1">
<path style=" stroke:none;fill-rule:nonzero;fill:#B6DCFE;fill-opacity:1;" d="M 17.675781 38.5 L 16.550781 34 L 16.265625 33.921875 C 13.808594 33.265625 11.570313 31.976563 9.792969 30.199219 L 9.585938 29.992188 L 5.140625 31.261719 L 2.816406 27.238281 L 6.152344 24.011719 L 6.074219 23.726563 C 5.742188 22.476563 5.570313 21.21875 5.570313 20 C 5.570313 18.78125 5.742188 17.523438 6.074219 16.269531 L 6.152344 15.988281 L 2.816406 12.761719 L 5.140625 8.738281 L 9.585938 10.007813 L 9.792969 9.800781 C 11.570313 8.019531 13.808594 6.734375 16.265625 6.074219 L 16.550781 6 L 17.675781 1.5 L 22.324219 1.5 L 23.449219 6 L 23.730469 6.078125 C 26.1875 6.734375 28.425781 8.023438 30.203125 9.800781 L 30.414063 10.007813 L 34.859375 8.738281 L 37.183594 12.761719 L 33.847656 15.988281 L 33.921875 16.273438 C 34.257813 17.523438 34.429688 18.777344 34.429688 20 C 34.429688 21.21875 34.257813 22.476563 33.925781 23.730469 L 33.847656 24.011719 L 37.183594 27.238281 L 34.859375 31.261719 L 30.414063 29.992188 L 30.207031 30.199219 C 28.429688 31.976563 26.191406 33.265625 23.734375 33.921875 L 23.449219 34 L 22.324219 38.5 Z M 20 12.035156 C 15.609375 12.035156 12.035156 15.609375 12.035156 20 C 12.035156 24.390625 15.609375 27.964844 20 27.964844 C 24.390625 27.964844 27.964844 24.390625 27.964844 20 C 27.964844 15.609375 24.390625 12.035156 20 12.035156 Z "/>
<path style=" stroke:none;fill-rule:nonzero;fill:#4788C7;fill-opacity:1;" d="M 21.933594 2 L 22.890625 5.835938 L 23.035156 6.40625 L 23.605469 6.558594 C 25.976563 7.195313 28.136719 8.4375 29.851563 10.152344 L 30.269531 10.570313 L 30.835938 10.410156 L 34.621094 9.324219 L 36.554688 12.675781 L 33.710938 15.425781 L 33.289063 15.832031 L 33.441406 16.402344 C 33.765625 17.613281 33.929688 18.824219 33.929688 20 C 33.929688 21.175781 33.765625 22.386719 33.441406 23.597656 L 33.289063 24.167969 L 33.710938 24.574219 L 36.554688 27.324219 L 34.621094 30.675781 L 30.835938 29.589844 L 30.269531 29.429688 L 29.851563 29.847656 C 28.136719 31.5625 25.976563 32.804688 23.605469 33.441406 L 23.035156 33.59375 L 22.890625 34.164063 L 21.933594 38 L 18.066406 38 L 17.109375 34.164063 L 16.964844 33.59375 L 16.394531 33.441406 C 14.023438 32.804688 11.863281 31.5625 10.148438 29.847656 L 9.730469 29.429688 L 9.164063 29.589844 L 5.378906 30.675781 L 3.445313 27.324219 L 6.289063 24.574219 L 6.710938 24.167969 L 6.558594 23.597656 C 6.234375 22.386719 6.070313 21.175781 6.070313 20 C 6.070313 18.824219 6.234375 17.613281 6.558594 16.402344 L 6.710938 15.832031 L 6.289063 15.425781 L 3.445313 12.675781 L 5.378906 9.324219 L 9.164063 10.410156 L 9.730469 10.570313 L 10.148438 10.152344 C 11.863281 8.4375 14.023438 7.195313 16.394531 6.558594 L 16.964844 6.40625 L 17.109375 5.835938 L 18.066406 2 L 21.933594 2 M 20 28.464844 C 24.667969 28.464844 28.464844 24.667969 28.464844 20 C 28.464844 15.332031 24.667969 11.535156 20 11.535156 C 15.332031 11.535156 11.535156 15.332031 11.535156 20 C 11.535156 24.667969 15.332031 28.464844 20 28.464844 M 22.714844 1 L 17.285156 1 L 16.136719 5.59375 C 13.566406 6.28125 11.265625 7.621094 9.441406 9.445313 L 4.902344 8.148438 L 2.1875 12.851563 L 5.59375 16.140625 C 5.265625 17.375 5.070313 18.664063 5.070313 20 C 5.070313 21.335938 5.261719 22.625 5.59375 23.855469 L 2.1875 27.148438 L 4.902344 31.851563 L 9.441406 30.550781 C 11.265625 32.378906 13.566406 33.71875 16.136719 34.40625 L 17.285156 39 L 22.714844 39 L 23.863281 34.40625 C 26.433594 33.71875 28.734375 32.378906 30.558594 30.554688 L 35.097656 31.851563 L 37.8125 27.148438 L 34.40625 23.859375 C 34.734375 22.625 34.929688 21.335938 34.929688 20 C 34.929688 18.664063 34.738281 17.375 34.40625 16.144531 L 37.8125 12.851563 L 35.097656 8.152344 L 30.558594 9.449219 C 28.734375 7.621094 26.433594 6.285156 23.863281 5.597656 Z M 20 27.464844 C 15.878906 27.464844 12.535156 24.121094 12.535156 20 C 12.535156 15.878906 15.878906 12.535156 20 12.535156 C 24.121094 12.535156 27.464844 15.878906 27.464844 20 C 27.464844 24.121094 24.121094 27.464844 20 27.464844 Z "/>
<path style=" stroke:none;fill-rule:nonzero;fill:#DFF0FE;fill-opacity:1;" d="M 20 30.5 C 14.210938 30.5 9.5 25.789063 9.5 20 C 9.5 14.210938 14.210938 9.5 20 9.5 C 25.789063 9.5 30.5 14.210938 30.5 20 C 30.5 25.789063 25.789063 30.5 20 30.5 Z M 20 15.5 C 17.519531 15.5 15.5 17.519531 15.5 20 C 15.5 22.480469 17.519531 24.5 20 24.5 C 22.480469 24.5 24.5 22.480469 24.5 20 C 24.5 17.519531 22.480469 15.5 20 15.5 Z "/>
<path style=" stroke:none;fill-rule:nonzero;fill:#4788C7;fill-opacity:1;" d="M 20 10 C 25.515625 10 30 14.484375 30 20 C 30 25.515625 25.515625 30 20 30 C 14.484375 30 10 25.515625 10 20 C 10 14.484375 14.484375 10 20 10 M 20 25 C 22.757813 25 25 22.757813 25 20 C 25 17.242188 22.757813 15 20 15 C 17.242188 15 15 17.242188 15 20 C 15 22.757813 17.242188 25 20 25 M 20 9 C 13.925781 9 9 13.925781 9 20 C 9 26.074219 13.925781 31 20 31 C 26.074219 31 31 26.074219 31 20 C 31 13.925781 26.074219 9 20 9 Z M 20 24 C 17.789063 24 16 22.210938 16 20 C 16 17.789063 17.789063 16 20 16 C 22.210938 16 24 17.789063 24 20 C 24 22.210938 22.210938 24 20 24 Z "/>
</g>
</svg>
